<?xml version="1.0" standalone="no"?>
<!DOCTYPE svg PUBLIC "-//W3C//DTD SVG 20010904//EN"
 "http://www.w3.org/TR/2001/REC-SVG-20010904/DTD/svg10.dtd">
<svg version="1.0" xmlns="http://www.w3.org/2000/svg"
 width="512.000000pt" height="512.000000pt" viewBox="0 0 512.000000 512.000000"
 preserveAspectRatio="xMidYMid meet">

<g transform="translate(0.000000,512.000000) scale(0.100000,-0.100000)"
fill="#000000" stroke="none">
<path d="M4355 4860 l-255 -255 105 -105 105 -105 75 75 75 74 0 -1284 0
-1284 -75 74 -75 75 -108 -108 -107 -107 258 -258 258 -257 255 259 254 259
-107 103 -108 102 -72 -71 -73 -71 0 1284 0 1284 75 -74 75 -75 105 105 105
105 -255 255 -255 255 -255 -255z"/>
<path d="M1002 4107 l-1002 -1002 107 -108 108 -107 147 147 148 148 0 -868 0
-867 1500 0 1500 0 0 867 0 868 150 -150 150 -150 107 108 108 107 -1005 1005
c-553 553 -1007 1005 -1010 1005 -3 0 -456 -451 -1008 -1003z m1611 -17 l597
-599 0 -871 0 -870 -375 0 -375 0 0 600 0 600 -450 0 -450 0 0 -600 0 -600
-375 0 -375 0 0 871 0 870 597 600 c328 329 599 599 603 599 4 0 275 -270 603
-600z m-453 -1890 l0 -450 -150 0 -150 0 0 450 0 450 150 0 150 0 0 -450z"/>
<path d="M260 765 l-255 -255 255 -255 255 -255 105 105 105 105 -75 75 -74
75 1434 0 1434 0 -72 -73 -72 -72 103 -109 102 -108 260 255 260 255 -257 259
-258 258 -107 -107 -108 -108 75 -75 74 -75 -1434 0 -1434 0 74 75 75 75 -105
105 -105 105 -255 -255z"/>
</g>
</svg>
