<?xml version="1.0" standalone="no"?>
<!DOCTYPE svg PUBLIC "-//W3C//DTD SVG 20010904//EN"
 "http://www.w3.org/TR/2001/REC-SVG-20010904/DTD/svg10.dtd">
<svg version="1.0" xmlns="http://www.w3.org/2000/svg"
 width="500.000000pt" height="500.000000pt" viewBox="0 0 500.000000 500.000000"
 preserveAspectRatio="xMidYMid meet">

<g transform="translate(0.000000,500.000000) scale(0.100000,-0.100000)"
fill="#000000" stroke="none">
<path d="M0 2500 l0 -2500 2500 0 2500 0 0 2500 0 2500 -2500 0 -2500 0 0
-2500z m1346 559 c98 -77 182 -146 186 -152 4 -7 8 -119 8 -249 l0 -238 -24
-15 c-35 -23 -722 -18 -736 5 -15 24 -13 483 3 502 20 26 358 288 371 288 7 0
93 -63 192 -141z m978 -155 c20 -20 20 -33 -1 -56 -31 -34 -83 -17 -83 27 0
43 53 61 84 29z m416 -14 c46 -24 62 -47 49 -72 -13 -23 -31 -23 -71 2 -23 14
-51 20 -91 20 -51 0 -62 -4 -87 -28 -29 -30 -50 -86 -50 -137 0 -51 21 -107
50 -137 25 -24 36 -28 87 -28 40 0 68 6 91 20 40 25 58 25 71 3 13 -25 -3 -49
-47 -72 -137 -70 -286 -8 -328 135 -40 137 23 272 143 311 49 16 134 8 183
-17z m880 15 c18 -22 4 -64 -24 -71 -50 -12 -88 40 -54 74 17 17 63 15 78 -3z
m-1837 -32 c13 -21 50 -89 82 -151 32 -62 60 -110 63 -107 3 3 39 69 81 147
63 118 80 144 100 146 46 7 51 -15 51 -235 0 -190 -1 -204 -20 -223 -16 -16
-25 -18 -40 -10 -18 9 -20 23 -22 157 l-3 146 -60 -114 c-56 -106 -62 -114
-89 -114 -27 0 -34 9 -90 112 l-61 113 -3 -143 c-2 -117 -5 -144 -19 -154 -11
-9 -21 -9 -34 -2 -18 9 -19 25 -19 233 0 122 3 226 7 229 19 19 54 5 76 -30z
m2008 -13 c14 -8 19 -21 19 -50 0 -37 2 -40 29 -40 44 0 61 -10 61 -35 0 -25
-17 -35 -61 -35 l-29 0 0 -84 c0 -92 11 -116 54 -116 29 0 48 -22 40 -45 -6
-14 -17 -16 -66 -13 -92 7 -117 47 -118 189 0 65 -1 67 -29 72 -16 3 -31 13
-34 21 -8 19 18 46 44 46 14 0 19 7 19 28 0 29 24 72 41 72 6 0 19 -5 30 -10z
m-1472 -104 c8 -9 11 -61 9 -161 -3 -143 -4 -148 -26 -156 -17 -6 -27 -4 -42
11 -18 18 -20 34 -20 151 0 72 5 139 10 150 12 22 52 25 69 5z m780 -10 c12
-11 25 -35 31 -55 14 -52 13 -224 -2 -239 -19 -19 -59 -15 -65 8 -5 19 -6 19
-30 1 -35 -28 -76 -34 -116 -17 -46 19 -69 55 -65 102 4 54 39 76 130 83 70 6
73 7 70 30 -6 53 -47 65 -122 35 -22 -9 -47 -13 -56 -10 -27 10 -12 49 26 69
48 25 169 20 199 -7z m331 9 c21 -11 30 -23 30 -41 0 -32 -21 -39 -59 -20 -54
29 -111 18 -111 -20 0 -19 8 -25 43 -34 117 -31 139 -47 139 -106 0 -89 -125
-129 -239 -77 -24 11 -33 22 -33 39 0 33 20 39 65 20 49 -21 99 -20 120 1 16
16 16 18 -4 34 -11 10 -39 20 -61 24 -61 10 -104 44 -108 85 -4 41 14 77 48
95 34 19 134 19 170 0z m185 -150 l0 -160 -35 0 -35 0 -3 150 c-1 82 0 155 3
163 3 8 17 12 37 10 l33 -3 0 -160z m567 136 l33 -29 0 -134 0 -133 -32 -3
c-25 -2 -33 1 -38 18 -6 19 -8 19 -18 6 -46 -60 -173 -29 -193 48 -17 70 39
116 144 116 59 0 62 1 62 24 0 30 -24 56 -52 56 -12 0 -46 -8 -75 -17 -47 -15
-56 -15 -64 -3 -28 44 33 80 133 80 61 0 71 -3 100 -29z"/>
<path d="M1009 2987 l-144 -113 -3 -197 -2 -197 295 0 295 0 0 194 0 194 -137
109 c-76 60 -143 112 -149 116 -7 4 -73 -42 -155 -106z m17 -224 c23 -75 66
-113 129 -113 63 0 106 38 129 113 6 19 70 25 81 7 9 -15 -12 -79 -40 -120
-83 -119 -276 -112 -349 13 -28 48 -41 91 -31 106 11 19 75 13 81 -6z"/>
<path d="M2971 2582 c-59 -17 -51 -75 11 -80 39 -3 64 18 70 58 3 22 -1 25
-27 27 -16 1 -41 -2 -54 -5z"/>
<path d="M4050 2581 c-28 -8 -39 -43 -20 -67 31 -37 110 0 110 51 0 22 -4 25
-32 24 -18 -1 -44 -4 -58 -8z"/>
</g>
</svg>
